<svg width="11" height="13" viewBox="0 0 11 13" fill="none" xmlns="http://www.w3.org/2000/svg">
<path d="M5.60791 12.4663C5.84066 12.4663 6.02897 12.3923 6.17285 12.2441C6.32096 12.096 6.39502 11.9014 6.39502 11.6602V4.13184L6.3125 1.9292L5.84277 2.1958L7.84863 4.46191L9.2832 5.88379C9.35514 5.95573 9.43766 6.01286 9.53076 6.05518C9.62809 6.09749 9.73389 6.11865 9.84814 6.11865C10.064 6.11865 10.2438 6.04671 10.3877 5.90283C10.5316 5.75895 10.6035 5.57699 10.6035 5.35693C10.6035 5.14535 10.521 4.95492 10.356 4.78564L6.19824 0.615234C6.12207 0.539062 6.03109 0.479818 5.92529 0.4375C5.82373 0.395182 5.71794 0.374023 5.60791 0.374023C5.50212 0.374023 5.39632 0.395182 5.29053 0.4375C5.18896 0.479818 5.1001 0.539062 5.02393 0.615234L0.866211 4.78564C0.701172 4.95492 0.618652 5.14535 0.618652 5.35693C0.618652 5.57699 0.690592 5.75895 0.834473 5.90283C0.978353 6.04671 1.1582 6.11865 1.37402 6.11865C1.48828 6.11865 1.59196 6.09749 1.68506 6.05518C1.77816 6.01286 1.86068 5.95573 1.93262 5.88379L3.36719 4.46191L5.3667 2.1958L4.90332 1.9292L4.8208 4.13184V11.6602C4.8208 11.9014 4.89274 12.096 5.03662 12.2441C5.18473 12.3923 5.37516 12.4663 5.60791 12.4663Z" fill="#40196D"/>
</svg>
