<svg width="65" height="64" viewBox="0 0 65 64" fill="none" xmlns="http://www.w3.org/2000/svg">
<path d="M54.6537 64H13.2985C7.83509 64 3.3667 59.5445 3.3667 54.0968V12.8787C3.3667 7.43103 7.83509 2.9755 13.2985 2.9755H54.6356C60.099 2.9755 64.5674 7.43103 64.5674 12.8787V54.0968C64.5855 59.5445 60.1171 64 54.6537 64Z" fill="#FFDBDB"/>
<path d="M51.7016 61.0425H10.3644C4.90101 61.0425 0.432617 56.587 0.432617 51.1394V9.90318C0.432617 4.45553 4.90101 0 10.3644 0H51.7016C57.165 0 61.6334 4.45553 61.6334 9.90318V51.1213C61.6515 56.587 57.1831 61.0425 51.7016 61.0425Z" fill="#F7685B"/>
<path d="M33.163 12.6459L28.6997 12.6459V35.5998H33.163V12.6459Z" fill="white"/>
<rect x="28.6997" y="40.3181" width="4.46326" height="4.46326" fill="white"/>
</svg>
