<svg
        width="12"
        height="11"
        viewBox="0 0 12 11"
        fill="none"
        xmlns="http://www.w3.org/2000/svg"
      >
        <path
          fill-rule="evenodd"
          clip-rule="evenodd"
          d="M10.5208 4.85443H2.85803L5.20434 2.0386C5.43297 1.76477 5.39551 1.35725 5.12168 1.12927C4.8472 0.900642 4.44032 0.9381 4.21234 1.21193L0.983177 5.08693C0.957989 5.11729 0.945073 5.15281 0.926344 5.18639C0.910843 5.21352 0.892114 5.23677 0.880489 5.26647C0.851427 5.34075 0.833989 5.41889 0.833989 5.49768C0.833989 5.49833 0.833344 5.49962 0.833344 5.50027C0.833344 5.50091 0.833989 5.5022 0.833989 5.50285C0.833989 5.58164 0.851427 5.65979 0.880489 5.73406C0.892114 5.76377 0.910843 5.78702 0.926344 5.81414C0.945073 5.84772 0.957989 5.88325 0.983177 5.9136L4.21234 9.7886C4.34022 9.94166 4.52364 10.0211 4.70834 10.0211C4.8543 10.0211 5.00091 9.97202 5.12168 9.87127C5.39551 9.64329 5.43297 9.23577 5.20434 8.96193L2.85803 6.1461H10.5208C10.8773 6.1461 11.1667 5.85677 11.1667 5.50027C11.1667 5.14377 10.8773 4.85443 10.5208 4.85443Z"
          fill="#40196D"
        />
      </svg>