<svg width="23" height="22" viewBox="0 0 23 22" fill="none" xmlns="http://www.w3.org/2000/svg">
<path d="M21.7529 11C21.7529 16.6609 17.1638 21.25 11.5029 21.25C5.84201 21.25 1.25293 16.6609 1.25293 11C1.25293 5.33908 5.84201 0.75 11.5029 0.75C17.1638 0.75 21.7529 5.33908 21.7529 11Z" fill="#48D38A" stroke="#48D38A" stroke-width="1.5"/>
<path d="M10.2725 15.9434C10.5244 15.9434 10.7236 15.832 10.8643 15.6152L16.4014 6.89648C16.5068 6.72656 16.5479 6.59766 16.5479 6.46289C16.5479 6.14062 16.3369 5.92969 16.0146 5.92969C15.7803 5.92969 15.6514 6.00586 15.5107 6.22852L10.249 14.6133L7.51855 11.0391C7.37207 10.834 7.22559 10.752 7.01465 10.752C6.68066 10.752 6.45215 10.9805 6.45215 11.3027C6.45215 11.4375 6.51074 11.5898 6.62207 11.7305L9.66309 15.6035C9.83887 15.832 10.0205 15.9434 10.2725 15.9434Z" fill="white"/>
</svg>
