<svg width="9" height="10" viewBox="0 0 9 10" fill="none" xmlns="http://www.w3.org/2000/svg">
<path d="M3.47761 9.52703C3.77612 9.52703 4.00995 9.40763 4.17413 9.16385L8.83085 1.97977C8.95025 1.80066 9 1.63648 9 1.48225C9 1.07429 8.70149 0.780762 8.28358 0.780762C7.99503 0.780762 7.8209 0.880264 7.64677 1.15887L3.45771 7.78574L1.31841 5.08922C1.14925 4.88524 0.975124 4.79071 0.726368 4.79071C0.303483 4.79071 0 5.08922 0 5.50215C0 5.68126 0.0597015 5.85041 0.21393 6.02952L2.78607 9.18872C2.9801 9.42255 3.19403 9.52703 3.47761 9.52703Z" fill="#48D38A"/>
</svg>
