<svg width="12" height="10" viewBox="0 0 12 10" fill="none" xmlns="http://www.w3.org/2000/svg">
<path opacity="0.4" d="M7.33341 8.87747V6.22219C7.33341 6.10432 7.28659 5.99127 7.20324 5.90792C7.11989 5.82457 7.00684 5.77774 6.88897 5.77774H5.11119C4.99332 5.77774 4.88027 5.82457 4.79692 5.90792C4.71357 5.99127 4.66675 6.10432 4.66675 6.22219V8.8808C4.66675 8.99829 4.62023 9.111 4.53736 9.19429C4.45449 9.27757 4.34201 9.32466 4.22453 9.32524L1.11119 9.3333C0.993318 9.3333 0.880272 9.28648 0.796923 9.20313C0.713573 9.11978 0.666748 9.00673 0.666748 8.88886V4.33497L5.78869 0.116912C5.84889 0.0683907 5.92388 0.0419312 6.00119 0.0419312C6.07851 0.0419312 6.1535 0.0683907 6.21369 0.116912L11.3334 4.3333V8.88886C11.3334 9.00673 11.2866 9.11978 11.2032 9.20313C11.1199 9.28648 11.0068 9.3333 10.889 9.3333L7.77786 9.32469C7.71926 9.32469 7.66124 9.3131 7.60713 9.29059C7.55303 9.26809 7.50391 9.2351 7.4626 9.19353C7.4213 9.15197 7.38862 9.10264 7.36645 9.0484C7.34427 8.99416 7.33305 8.93607 7.33341 8.87747Z" fill="#213F7D"/>
</svg>
