<svg width="45" height="44" viewBox="0 0 45 44" fill="none" xmlns="http://www.w3.org/2000/svg">
<mask id="mask0_201_300" style="mask-type:alpha" maskUnits="userSpaceOnUse" x="0" y="0" width="45" height="44">
<circle cx="22.6005" cy="22" r="21.7949" fill="#D42E12"/>
<circle cx="22.6005" cy="22" r="21.2949" stroke="#48D38A" stroke-opacity="0.1"/>
</mask>
<g mask="url(#mask0_201_300)">
<circle cx="22.6005" cy="22" r="21.7949" fill="#48D38A"/>
<circle cx="22.6005" cy="22" r="21.2949" stroke="#48D38A" stroke-opacity="0.1"/>
<path d="M27.5487 13.8969C27.1399 13.4881 26.6494 13.2253 26.0771 13.1085C25.5107 12.9917 24.8654 12.9333 24.1413 12.9333H17.8521C17.1455 12.9333 16.509 12.9917 15.9425 13.1085C15.3761 13.2253 14.8914 13.4881 14.4885 13.8969C14.0797 14.3057 13.8169 14.7933 13.7001 15.3597C13.5892 15.9203 13.5337 16.5539 13.5337 17.2605V23.5497C13.5337 24.2738 13.5892 24.9191 13.7001 25.4855C13.8111 26.0461 14.0739 26.5279 14.4885 26.9308C14.8914 27.3454 15.3761 27.6082 15.9425 27.7192C16.5148 27.836 17.163 27.8944 17.8871 27.8944H24.1413C24.8654 27.8944 25.5136 27.836 26.0859 27.7192C26.6582 27.6082 27.1458 27.3454 27.5487 26.9308C27.9516 26.5279 28.2086 26.0461 28.3195 25.4855C28.4363 24.9191 28.4947 24.2738 28.4947 23.5497V17.2868C28.4947 16.5626 28.4363 15.9174 28.3195 15.3509C28.2086 14.7845 27.9516 14.2998 27.5487 13.8969Z" fill="url(#paint0_linear_201_300)" stroke="#DCFFEC"/>
<path opacity="0.4" d="M30.0502 17.0233C29.6414 16.6146 29.1509 16.3518 28.5786 16.235C28.0121 16.1182 27.3669 16.0598 26.6428 16.0598H20.3535C19.6469 16.0598 19.0104 16.1182 18.444 16.235C17.8775 16.3518 17.3929 16.6146 16.9899 17.0233C16.5812 17.4321 16.3184 17.9197 16.2016 18.4862C16.0906 19.0468 16.0352 19.6804 16.0352 20.3869V26.6762C16.0352 27.4003 16.0906 28.0456 16.2016 28.612C16.3125 29.1726 16.5753 29.6544 16.9899 30.0573C17.3929 30.4719 17.8775 30.7347 18.444 30.8456C19.0163 30.9624 19.6645 31.0208 20.3886 31.0208H26.6428C27.3669 31.0208 28.0151 30.9624 28.5873 30.8456C29.1596 30.7347 29.6472 30.4719 30.0502 30.0573C30.4531 29.6544 30.71 29.1726 30.821 28.612C30.9378 28.0456 30.9962 27.4003 30.9962 26.6762V20.4132C30.9962 19.6891 30.9378 19.0438 30.821 18.4774C30.71 17.911 30.4531 17.4263 30.0502 17.0233Z" fill="#DCFFEC"/>
<path d="M16.8205 16.9466C16.4234 17.3437 16.1635 17.8137 16.0409 18.3568C15.9241 18.8941 15.8657 19.5043 15.8657 20.1875V20.3014H17.0833V20.1437C17.0833 19.6824 17.1212 19.2444 17.1971 18.8298C17.2789 18.4152 17.4453 18.0824 17.6964 17.8313C17.9534 17.5802 18.2891 17.4108 18.7038 17.3232C19.1242 17.2356 19.5651 17.1918 20.0264 17.1918H20.2191V15.983H20.0702C19.387 15.983 18.7709 16.0473 18.222 16.1757C17.6789 16.2984 17.2117 16.5553 16.8205 16.9466ZM21.2878 17.1918H25.5799V15.983H21.2878V17.1918ZM30.0559 16.9466C29.653 16.5495 29.18 16.2896 28.6369 16.167C28.0938 16.0443 27.469 15.983 26.7624 15.983H26.6398V17.1918H26.8763C27.3259 17.1918 27.758 17.2356 28.1726 17.3232C28.5873 17.4108 28.9201 17.5802 29.1712 17.8313C29.4165 18.0824 29.58 18.4123 29.6617 18.8211C29.7493 19.2298 29.7931 19.662 29.7931 20.1175V20.3014H31.0019V20.2313C31.0019 19.5189 30.9406 18.8911 30.818 18.3481C30.7012 17.805 30.4472 17.3378 30.0559 16.9466ZM29.7931 25.6709H31.0019V21.37H29.7931V25.6709ZM30.0559 30.1031C30.4472 29.7119 30.7012 29.2447 30.818 28.7016C30.9406 28.1586 31.0019 27.5308 31.0019 26.8184V26.7395H29.7931V26.9323C29.7931 27.3819 29.7493 27.814 29.6617 28.2286C29.58 28.6374 29.4165 28.9673 29.1712 29.2184C28.9201 29.4695 28.5873 29.636 28.1726 29.7177C27.758 29.8053 27.3259 29.8491 26.8763 29.8491H26.6398V31.0667H26.7624C27.469 31.0667 28.0938 31.0054 28.6369 30.8827C29.18 30.7601 29.653 30.5002 30.0559 30.1031ZM21.2878 31.0667H25.5799V29.8491H21.2878V31.0667ZM16.8205 30.1031C17.2117 30.5002 17.6818 30.7601 18.2308 30.8827C18.7797 31.0054 19.4045 31.0667 20.1053 31.0667H20.2191V29.8491H20.0001C19.5447 29.8491 19.1096 29.8053 18.695 29.7177C18.2862 29.636 17.9563 29.4695 17.7052 29.2184C17.4482 28.9673 17.2789 28.6374 17.1971 28.2286C17.1212 27.814 17.0833 27.3819 17.0833 26.9323V26.7395H15.8657V26.8184C15.8657 27.5308 15.9241 28.1615 16.0409 28.7104C16.1635 29.2535 16.4234 29.7177 16.8205 30.1031ZM15.8657 25.6709H17.0833V21.37H15.8657V25.6709Z" fill="white"/>
</g>
<defs>
<linearGradient id="paint0_linear_201_300" x1="21.0142" y1="12.9333" x2="21.0142" y2="27.8944" gradientUnits="userSpaceOnUse">
<stop stop-color="#DCFFEC"/>
<stop offset="1" stop-color="#DCFFEC" stop-opacity="0.5"/>
</linearGradient>
</defs>
</svg>
