<svg width="81" height="80" viewBox="0 0 81 80" fill="none" xmlns="http://www.w3.org/2000/svg">
<path d="M67.9288 79.428H16.5232C9.73207 79.428 4.17773 73.8855 4.17773 67.109V15.8359C4.17773 9.05928 9.73207 3.51685 16.5232 3.51685H67.9064C74.6975 3.51685 80.2518 9.05928 80.2518 15.8359V67.109C80.2743 73.8855 74.72 79.428 67.9288 79.428Z" fill="#FFDBDB"/>
<path d="M63.7286 75.9336H12.3455C5.55433 75.9336 0 70.3911 0 63.6146V12.319C0 5.54243 5.55433 0 12.3455 0H63.7286C70.5198 0 76.0741 5.54243 76.0741 12.319V63.5921C76.0966 70.3911 70.5422 75.9336 63.7286 75.9336Z" fill="#F7685B"/>
<path d="M46.2886 46.89C46.2886 45.6155 43.3474 42.2625 38.6023 42.2625C33.8572 42.2625 30.916 45.6155 30.916 46.89C30.916 47.1449 31.0925 47.2625 31.3082 47.0861C32.6611 45.988 35.1513 44.7331 38.6023 44.7331C42.0533 44.7331 44.4846 45.9096 45.8964 47.1057C46.0925 47.2625 46.2886 47.1449 46.2886 46.89Z" fill="white"/>
<path d="M38.0078 58.5986C48.949 58.5986 58.0078 49.5398 58.0078 38.5986C58.0078 27.6771 48.9294 18.5986 37.9882 18.5986C27.0666 18.5986 18.0078 27.6771 18.0078 38.5986C18.0078 49.5398 27.0862 58.5986 38.0078 58.5986ZM38.0078 55.2653C28.7529 55.2653 21.3608 47.8535 21.3608 38.5986C21.3608 29.3633 28.7333 21.932 37.9882 21.932C47.2431 21.932 54.6549 29.3633 54.6745 38.5986C54.6941 47.8535 47.2627 55.2653 38.0078 55.2653ZM32.3215 36.8143C33.4784 36.8143 34.4392 35.7947 34.4392 34.3633C34.4392 32.932 33.4784 31.9124 32.3215 31.9124C31.1647 31.9124 30.2235 32.932 30.2235 34.3633C30.2235 35.7947 31.1647 36.8143 32.3215 36.8143ZM43.7725 36.8143C44.9294 36.8143 45.8902 35.7947 45.8902 34.3633C45.8902 32.932 44.9294 31.9124 43.7725 31.9124C42.6353 31.9124 41.6745 32.932 41.6745 34.3633C41.6745 35.7947 42.6353 36.8143 43.7725 36.8143Z" fill="white"/>
</svg>
