<svg
    width="12"
    height="7"
    viewBox="0 0 12 7"
    fill="none"
    xmlns="http://www.w3.org/2000/svg"
  >
    <path
      d="M1.79666 0C1.60795 4.02553e-05 1.42311 0.0534754 1.26348 0.154131C1.10386 0.254786 0.975978 0.398554 0.89461 0.568819C0.813243 0.739084 0.781713 0.928898 0.803664 1.11633C0.825616 1.30375 0.900153 1.48114 1.01866 1.628L4.83266 6.351C4.97327 6.52511 5.15105 6.66556 5.35298 6.76204C5.55491 6.85853 5.77587 6.9086 5.99966 6.9086C6.22346 6.9086 6.44442 6.85853 6.64635 6.76204C6.84828 6.66556 7.02606 6.52511 7.16666 6.351L10.9817 1.628C11.1002 1.48114 11.1747 1.30375 11.1967 1.11633C11.2186 0.928898 11.1871 0.739084 11.1057 0.568819C11.0243 0.398554 10.8965 0.254786 10.7368 0.154131C10.5772 0.0534754 10.3924 4.02553e-05 10.2037 0H1.79666Z"
      fill="#979797"
    />
  </svg>