<svg width="17" height="20" viewBox="0 0 17 20" fill="none" xmlns="http://www.w3.org/2000/svg">
<path fill-rule="evenodd" clip-rule="evenodd" d="M3.72671 5.21739V4.34783C3.72671 1.94659 5.81234 0 8.38509 0C10.9578 0 13.0435 1.94659 13.0435 4.34783V5.21739H14.5072C15.2941 5.21739 15.5794 5.29386 15.8671 5.43745C16.1548 5.58105 16.3806 5.79177 16.5344 6.06026C16.6883 6.32876 16.7702 6.59508 16.7702 7.32952V17.8879C16.7702 18.6223 16.6883 18.8886 16.5344 19.1571C16.3806 19.4256 16.1548 19.6363 15.8671 19.7799C15.5794 19.9235 15.2941 20 14.5072 20H2.26299C1.4761 20 1.19075 19.9235 0.903078 19.7799C0.615403 19.6363 0.389633 19.4256 0.235782 19.1571C0.0819317 18.8886 0 18.6223 0 17.8879V7.32952C0 6.59508 0.0819317 6.32876 0.235782 6.06026C0.389633 5.79177 0.615403 5.58105 0.903078 5.43745C1.19075 5.29386 1.4761 5.21739 2.26299 5.21739H3.72671ZM11.1779 5.21751V4.34795C11.1779 2.9072 9.92656 1.73925 8.38291 1.73925C6.83926 1.73925 5.58788 2.9072 5.58788 4.34795V5.21751H11.1779Z" fill="#48D38A"/>
</svg>
