<svg width="16" height="8" viewBox="0 0 16 8" fill="none" xmlns="http://www.w3.org/2000/svg">
<path opacity="0.4" d="M2.4 3.59996C2.71645 3.59996 3.02579 3.50613 3.28891 3.33032C3.55203 3.15451 3.75711 2.90462 3.87821 2.61226C3.99931 2.3199 4.03099 1.99819 3.96926 1.68782C3.90752 1.37745 3.75514 1.09236 3.53137 0.868593C3.30761 0.644829 3.02251 0.492444 2.71214 0.430708C2.40177 0.368971 2.08007 0.400657 1.78771 0.521757C1.49534 0.642857 1.24546 0.847933 1.06965 1.11105C0.893838 1.37417 0.8 1.68351 0.8 1.99996C0.800397 2.42419 0.969096 2.83092 1.26907 3.1309C1.56904 3.43087 1.97578 3.59957 2.4 3.59996ZM14.4 4.39996H12.8C12.3774 4.39951 11.9719 4.56674 11.6725 4.86496C12.1789 5.14056 12.613 5.53199 12.9392 6.00731C13.2655 6.48262 13.4748 7.02836 13.55 7.59996H15.2C15.4122 7.59996 15.6157 7.51568 15.7657 7.36565C15.9157 7.21562 16 7.01214 16 6.79996V5.99996C15.9996 5.57574 15.8309 5.169 15.5309 4.86903C15.231 4.56906 14.8242 4.40036 14.4 4.39996ZM1.6 4.39996C1.17578 4.40036 0.76904 4.56906 0.469068 4.86903C0.169096 5.169 0.000397152 5.57574 0 5.99996V6.79996C0 7.01214 0.0842855 7.21562 0.234315 7.36565C0.384344 7.51568 0.587827 7.59996 0.8 7.59996H2.4475C2.52367 7.02835 2.73362 6.48276 3.06028 6.00754C3.38694 5.53231 3.82111 5.14085 4.3275 4.86496C4.02809 4.56674 3.62259 4.39951 3.2 4.39996H1.6ZM13.6 3.59996C13.9165 3.59996 14.2258 3.50613 14.4889 3.33032C14.752 3.15451 14.9571 2.90462 15.0782 2.61226C15.1993 2.3199 15.231 1.99819 15.1693 1.68782C15.1075 1.37745 14.9551 1.09236 14.7314 0.868593C14.5076 0.644829 14.2225 0.492444 13.9121 0.430708C13.6018 0.368971 13.2801 0.400657 12.9877 0.521757C12.6953 0.642857 12.4455 0.847933 12.2696 1.11105C12.0938 1.37417 12 1.68351 12 1.99996C12.0004 2.42419 12.1691 2.83092 12.4691 3.1309C12.769 3.43087 13.1758 3.59957 13.6 3.59996Z" fill="#213F7D"/>
</svg>
