<svg viewBox="0 0 696 502" fill="none">
<path d="M555 168C555 168 507.348 168 413.632 168C319.917 168 368.628 13 262.205 13C155.782 13 -11 13 -11 13" stroke="#40196D" stroke-opacity="0.3" stroke-width="25"/>
<path d="M587 330C587 330 445.715 330 352 330C258.284 330 319.423 489.5 213 489.5C106.577 489.5 -23.7058 489.5 -23.7058 489.5" stroke="#F7685B" stroke-opacity="0.3" stroke-width="25"/>
<path d="M-88 368C-88 368 -29.4032 368 85.8372 368C201.078 368 141.179 165 272.045 165C402.911 165 608 165 608 165" stroke="#48D38A" stroke-opacity="0.3" stroke-width="25"/>
<path d="M696 347C696 347 589.74 347 474.5 347C359.26 347 466.821 205 335.955 205C205.089 205 0 205 0 205" stroke="#1DCBEF" stroke-opacity="0.3" stroke-width="25"/>
</svg>
