<svg  viewBox="0 0 602 314" fill="none" >
<path fill-rule="evenodd" clip-rule="evenodd" d="M464.919 71.3187C460.679 71.3187 457.227 67.8665 457.227 63.6266C457.227 59.3868 460.679 55.9346 464.919 55.9346C469.159 55.9346 472.611 59.3868 472.611 63.6266C472.611 67.8665 469.159 71.3187 464.919 71.3187ZM464.919 56.4465C460.968 56.4465 457.752 59.6625 457.752 63.6266C457.752 67.5777 460.968 70.7936 464.919 70.7936C468.87 70.7936 472.099 67.5777 472.099 63.6266C472.099 59.6625 468.87 56.4465 464.919 56.4465Z" fill="#1DC8EF"/>
<path fill-rule="evenodd" clip-rule="evenodd" d="M441.758 30.5915C441.719 30.5915 441.693 30.5783 441.653 30.5652C441.562 30.5258 441.496 30.434 441.496 30.3289V22.6763H423.171C423.027 22.6763 422.909 22.5581 422.909 22.4137V7.25276C422.909 7.10837 423.027 6.99023 423.171 6.99023H458.744C458.888 6.99023 459.006 7.10837 459.006 7.25276V22.4137C459.006 22.5581 458.888 22.6763 458.744 22.6763H449.779L441.942 30.5127C441.89 30.5652 441.824 30.5915 441.758 30.5915ZM423.434 22.1512H441.758C441.903 22.1512 442.021 22.2693 442.021 22.4137V29.6989L449.49 22.23C449.542 22.1775 449.608 22.1512 449.674 22.1512H458.481V7.51528H423.434V22.1512Z" fill="#1DC8EF"/>
<path fill-rule="evenodd" clip-rule="evenodd" d="M476.364 46.1202C476.285 46.1202 476.219 46.0939 476.167 46.0414L468.658 38.5331C468.567 38.4412 468.567 38.2706 468.658 38.1656L476.167 30.6573C476.272 30.5654 476.442 30.5654 476.547 30.6573L484.056 38.1656C484.148 38.2706 484.148 38.4412 484.056 38.5331L476.547 46.0414C476.495 46.0939 476.429 46.1202 476.364 46.1202ZM469.223 38.3494L476.364 45.4901L483.491 38.3494L476.364 31.2086L469.223 38.3494Z" fill="#FFC83E"/>
<path d="M438.819 50.7265C438.753 50.7265 438.688 50.7002 438.635 50.6477L428.633 40.6454C428.541 40.5536 428.541 40.3829 428.633 40.2779C428.738 40.186 428.909 40.186 429 40.2779L439.003 50.2802C439.108 50.3852 439.108 50.5427 439.003 50.6477C438.95 50.7002 438.885 50.7265 438.819 50.7265Z" fill="#FFC83E"/>
<path d="M428.817 50.7265C428.751 50.7265 428.685 50.7002 428.633 50.6477C428.541 50.5427 428.541 50.3852 428.633 50.2802L438.635 40.2779C438.74 40.186 438.898 40.186 439.003 40.2779C439.108 40.3829 439.108 40.5536 439.003 40.6454L429 50.6477C428.961 50.7002 428.882 50.7265 428.817 50.7265Z" fill="#FFC83E"/>
<path fill-rule="evenodd" clip-rule="evenodd" d="M410.872 54.8356C408.286 54.8356 406.186 52.7354 406.186 50.1495C406.186 47.5636 408.286 45.4634 410.872 45.4634C413.458 45.4634 415.558 47.5636 415.558 50.1495C415.558 52.7354 413.458 54.8356 410.872 54.8356ZM410.872 45.9753C408.575 45.9753 406.698 47.8524 406.698 50.1495C406.698 52.4466 408.575 54.3106 410.872 54.3106C413.169 54.3106 415.033 52.4466 415.033 50.1495C415.033 47.8524 413.169 45.9753 410.872 45.9753Z" fill="#48D38A"/>
<path fill-rule="evenodd" clip-rule="evenodd" d="M388.675 20.315H384.948C384.803 20.315 384.685 20.1968 384.685 20.0524V16.3245C384.685 16.1802 384.803 16.062 384.948 16.062H388.675C388.82 16.062 388.938 16.1802 388.938 16.3245V20.0524C388.938 20.1968 388.82 20.315 388.675 20.315ZM385.197 19.7899H388.413V16.5871H385.197V19.7899Z" fill="#1DC8EF"/>
<path d="M208.391 21.8491H170.643C164.568 21.8491 159.648 26.7697 159.648 32.844C159.648 34.6007 160.067 36.2701 160.801 37.7472H177.486C181.795 37.7472 185.518 40.2293 187.319 43.8389H197.946L207.753 53.6364V43.8389H208.391C214.456 43.8389 219.377 38.9183 219.377 32.844C219.377 26.7697 214.456 21.8491 208.391 21.8491Z" fill="#48D38A"/>
<path d="M160.801 37.7456H139.738C133.664 37.7456 128.743 42.6662 128.743 48.7405C128.743 54.806 133.664 59.7267 139.738 59.7267H140.367V69.5329L150.173 59.7267H177.486C183.551 59.7267 188.472 54.806 188.472 48.7405C188.472 46.975 188.061 45.3144 187.318 43.8374H170.642C166.334 43.8374 162.602 41.3552 160.801 37.7456Z" fill="#1DC8EF"/>
<path d="M182.117 32.8441C182.117 34.5309 180.745 35.9031 179.058 35.9031C177.363 35.9031 175.99 34.5309 175.99 32.8441C175.99 31.1485 177.363 29.7764 179.058 29.7764C180.745 29.7764 182.117 31.1485 182.117 32.8441Z" fill="white"/>
<path d="M193.191 32.8441C193.191 34.5309 191.819 35.9031 190.123 35.9031C188.436 35.9031 187.064 34.5309 187.064 32.8441C187.064 31.1485 188.436 29.7764 190.123 29.7764C191.819 29.7764 193.191 31.1485 193.191 32.8441Z" fill="white"/>
<path d="M204.265 32.8441C204.265 34.5309 202.892 35.9031 201.197 35.9031C199.501 35.9031 198.138 34.5309 198.138 32.8441C198.138 31.1485 199.501 29.7764 201.197 29.7764C202.892 29.7764 204.265 31.1485 204.265 32.8441Z" fill="white"/>
<path d="M122.913 48.9082H116.533C116.437 48.9082 116.367 48.8383 116.367 48.7422C116.367 48.646 116.437 48.5674 116.533 48.5674H122.913C123.009 48.5674 123.088 48.646 123.088 48.7422C123.088 48.8383 123.009 48.9082 122.913 48.9082Z" fill="#1DC8EF"/>
<path d="M128.027 36.5682C127.983 36.5682 127.939 36.5507 127.904 36.5158L123.394 32.0147C123.325 31.9448 123.325 31.8311 123.394 31.7612C123.464 31.7 123.569 31.7 123.639 31.7612L128.149 36.2711C128.219 36.341 128.219 36.4546 128.149 36.5158C128.114 36.5507 128.07 36.5682 128.027 36.5682Z" fill="#1DC8EF"/>
<path d="M140.367 31.4554C140.271 31.4554 140.192 31.3768 140.192 31.2806V24.9092C140.192 24.813 140.271 24.7344 140.367 24.7344C140.463 24.7344 140.542 24.813 140.542 24.9092V31.2806C140.542 31.3768 140.463 31.4554 140.367 31.4554Z" fill="#1DC8EF"/>
<path fill-rule="evenodd" clip-rule="evenodd" d="M181.934 74.2891C181.891 74.2891 181.847 74.2716 181.812 74.2366L176.813 69.2373C176.743 69.1674 176.743 69.0626 176.813 68.9926L181.812 63.9934C181.882 63.9234 181.987 63.9234 182.057 63.9934L187.056 68.9926C187.126 69.0626 187.126 69.1674 187.056 69.2373L182.057 74.2366C182.022 74.2716 181.978 74.2891 181.934 74.2891ZM177.18 69.115L181.934 73.8695L186.689 69.115L181.934 64.3604L177.18 69.115Z" fill="#1DC8EF"/>
<path d="M199.843 59.9382C199.8 59.9382 199.756 59.9207 199.721 59.8857L193.07 53.2259C193 53.1559 193 53.0511 193.07 52.9812C193.14 52.9112 193.245 52.9112 193.315 52.9812L199.966 59.641C200.036 59.7022 200.036 59.8158 199.966 59.8857C199.94 59.9207 199.896 59.9382 199.843 59.9382Z" fill="#FFC83E"/>
<path d="M193.192 59.9382C193.149 59.9382 193.105 59.9207 193.07 59.8857C193 59.8158 193 59.7022 193.07 59.641L199.721 52.9812C199.791 52.9112 199.905 52.9112 199.966 52.9812C200.036 53.0511 200.036 53.1559 199.966 53.2259L193.315 59.8857C193.28 59.9207 193.236 59.9382 193.192 59.9382Z" fill="#FFC83E"/>
<path fill-rule="evenodd" clip-rule="evenodd" d="M201.809 81.5965C199.651 81.5965 197.885 79.8398 197.885 77.6723C197.885 75.5135 199.651 73.748 201.809 73.748C203.977 73.748 205.742 75.5135 205.742 77.6723C205.742 79.8398 203.977 81.5965 201.809 81.5965ZM201.809 74.0976C199.843 74.0976 198.235 75.7058 198.235 77.6723C198.235 79.6475 199.843 81.2557 201.809 81.2557C203.785 81.2557 205.393 79.6475 205.393 77.6723C205.393 75.7058 203.785 74.0976 201.809 74.0976Z" fill="#48D38A"/>
<path fill-rule="evenodd" clip-rule="evenodd" d="M188.473 88.062C187.467 88.062 186.655 87.2405 186.655 86.2354C186.655 85.2303 187.467 84.4175 188.473 84.4175C189.478 84.4175 190.299 85.2303 190.299 86.2354C190.299 87.2405 189.478 88.062 188.473 88.062ZM188.473 84.7583C187.66 84.7583 187.004 85.4226 187.004 86.2354C187.004 87.0482 187.66 87.7124 188.473 87.7124C189.285 87.7124 189.95 87.0482 189.95 86.2354C189.95 85.4226 189.285 84.7583 188.473 84.7583Z" fill="#FFC83E"/>
<path fill-rule="evenodd" clip-rule="evenodd" d="M177.486 49.6073C175.598 49.6073 174.637 49.249 173.711 48.8994C172.767 48.5498 171.884 48.2177 170.057 48.2177C168.231 48.2177 167.348 48.5498 166.413 48.8994C165.477 49.249 164.525 49.6073 162.637 49.6073C160.749 49.6073 159.788 49.249 158.861 48.8994C157.926 48.5498 157.035 48.2177 155.217 48.2177C153.39 48.2177 152.499 48.5498 151.563 48.8994C150.637 49.249 149.676 49.6073 147.788 49.6073C145.909 49.6073 144.947 49.249 144.021 48.8994L143.916 48.8644C143.566 48.7246 143.217 48.5323 142.876 48.2963C142.85 48.3225 142.815 48.3488 142.788 48.3663C141.949 49.013 140.796 49.3189 139.625 49.1966C139.528 49.1878 139.459 49.1004 139.467 49.0043C139.476 48.9081 139.563 48.8382 139.66 48.8469C140.743 48.9606 141.801 48.6896 142.57 48.0953C142.579 48.0866 142.579 48.0866 142.587 48.0866C141.39 47.1427 140.429 45.6831 140.49 44.206C140.516 43.5068 140.971 42.9737 141.644 42.8513C142.212 42.7552 142.823 42.9387 143.217 43.332C143.697 43.8215 144.038 44.5993 144.126 45.4121C144.222 46.3473 143.846 47.3437 143.138 48.0603C143.435 48.2526 143.741 48.4187 144.038 48.5411L144.143 48.576C145.078 48.9256 145.97 49.2577 147.788 49.2577C149.614 49.2577 150.506 48.9256 151.441 48.576C152.368 48.2264 153.329 47.8681 155.217 47.8681C157.105 47.8681 158.057 48.2264 158.984 48.576C159.928 48.9256 160.81 49.2577 162.637 49.2577C164.464 49.2577 165.346 48.9256 166.29 48.576C167.217 48.2264 168.169 47.8681 170.057 47.8681C171.945 47.8681 172.906 48.2264 173.833 48.576C174.768 48.9256 175.66 49.2577 177.486 49.2577C177.582 49.2577 177.652 49.3364 177.652 49.4325C177.652 49.5287 177.582 49.6073 177.486 49.6073ZM141.958 43.1747C141.871 43.1747 141.792 43.1834 141.705 43.1922C141.189 43.2883 140.857 43.6816 140.839 44.2235C140.778 45.6044 141.713 46.9853 142.85 47.8506C143.514 47.2126 143.872 46.2949 143.785 45.4471C143.706 44.7129 143.4 44.0137 142.972 43.5767C142.719 43.3233 142.334 43.1747 141.958 43.1747Z" fill="black"/>
<path d="M520.726 282.662L518.641 272.063V269.63L504.392 264.591L486.495 268.588V275.017L487.19 283.531C490.993 283.01 492.207 284.33 493.793 287.701C497.038 293.083 499.614 293.269 504.392 292.914L520.726 282.662Z" fill="#A478E4"/>
<path d="M518.988 273.974V272.062C508.486 268.839 501.779 268.467 487.885 271.194L488.754 273.974L487.885 275.538L486.148 276.406L487.19 281.967L518.988 273.974Z" fill="#5B1999"/>
<rect x="446.53" y="84.9233" width="23.6314" height="45.8728" rx="4.37384" fill="black"/>
<path d="M415.253 281.099L406.218 280.23L394.923 265.287L465.123 142.264C479.346 150.356 486.553 158.334 496.052 187.616L521.421 272.758C509.316 268.828 502.013 268.755 488.406 271.021L442.36 251.907L415.253 281.099Z" fill="#5F36A8"/>
<path d="M488.406 274.323C473.133 269.779 464.128 267.991 442.533 274.323V217.329C420.017 266.448 409.079 277.017 389.189 299.692C367.097 311.732 355.074 317.047 337.756 310.291C321.243 297.002 317.031 288.091 316.557 270.153L324.029 246.347L350.962 213.507L420.987 160.336C432.345 146.962 438.387 138.454 453.828 137.747C478.293 143.316 475.1 162.65 480.24 186.748L488.406 274.323Z" fill="white"/>
<path d="M295.706 78.8431L311.17 130.276L274.164 140.276L276.09 80.9249L295.706 78.8431Z" fill="#9C7ACD"/>
<path d="M255.345 61.7474L257.469 61.7442L257.417 49.5582C257.352 38.084 266.625 28.699 278.126 28.6496C289.6 28.5846 298.958 37.8422 299.008 49.3434L299.24 90.1529L271.135 90.3069C263.672 90.3377 257.592 84.3289 257.545 76.8935L257.537 69.5161L255.398 69.5465C253.247 69.5343 251.502 67.813 251.472 65.6736C251.484 63.5228 253.206 61.7778 255.345 61.7474Z" fill="#9C7ACD"/>
<path d="M275.518 40.7116L275.462 28.8468C276.321 28.7286 277.218 28.6686 278.127 28.6511C289.601 28.5861 298.959 37.8437 299.009 49.3449L299.126 69.3726C299.133 69.4848 299.098 69.6085 299.09 69.7477C285.703 66.8802 275.589 54.9943 275.518 40.7116Z" fill="#4A405E"/>
<path d="M283.46 69.8293L286.258 69.7855C288.538 69.8063 290.35 67.7292 290.355 65.2147L290.324 56.1314C290.304 53.6013 288.454 51.5544 286.184 51.5762L283.376 51.5774C281.106 51.5992 279.27 53.6607 279.289 56.1907L279.321 65.2741C279.34 67.8041 281.19 69.8511 283.46 69.8293Z" fill="#9C7ACD"/>
<path d="M286.258 69.7855C288.538 69.8063 290.35 67.7292 290.355 65.2147L290.324 56.1314C290.304 53.6013 288.454 51.5544 286.184 51.5762L283.376 51.5774C281.106 51.5992 279.27 53.6607 279.289 56.1907" stroke="black" stroke-width="1.19287" stroke-linecap="round"/>
<path d="M299.008 49.3434C298.97 39.5753 292.19 31.4025 283.108 29.2442C280.831 30.4541 278.488 31.5904 276.072 32.5409C267.089 36.1585 256.249 38.3138 246.696 35.5975C243.328 34.6349 239.738 32.9331 238.79 29.2599C237.827 25.6137 240.139 22.338 243.7 21.3977C248.964 19.9967 255.646 21.6393 260.574 23.6419C259.048 22.4781 257.662 21.0709 256.315 19.7219C255.103 18.4505 253.887 16.9973 253.628 15.194C253.213 12.2221 255.367 10.7256 258.175 10.7199C262.744 10.7178 267.102 13.1486 270.834 15.5433C274.864 18.1088 278.556 21.1997 282.325 24.1554C281.604 23.0939 280.871 21.9899 280.75 20.6975C280.685 20.3725 280.678 20.0088 280.768 19.6647C281.397 16.753 284.934 17.921 286.63 19.0386C289.133 20.6919 291.105 23.0829 292.647 25.6586C296.869 32.6501 298.975 41.1962 299.008 49.3434Z" fill="black"/>
<path d="M275.018 66.5714C277.014 68.5446 277.023 71.7865 275.049 73.7824C273.076 75.7783 269.834 75.787 267.838 73.8137L275.018 66.5714Z" fill="black"/>
<path d="M264.907 56.8076C264.988 56.8542 265.085 56.8738 265.182 56.8933C265.476 56.8823 265.685 56.6429 265.701 56.3644L265.692 53.6255C265.681 53.3315 265.441 53.122 265.163 53.1059C264.869 53.1169 264.632 53.3408 264.643 53.6349L264.653 56.3738C264.656 56.5556 264.745 56.7144 264.907 56.8076Z" fill="black"/>
<path d="M275.788 90.2813L290.183 90.2031L275.503 99.1087L275.788 90.2813Z" fill="black"/>
<path fill-rule="evenodd" clip-rule="evenodd" d="M356.79 117.941L354.759 103.723L338.799 96.4146L328.637 117.649L328.394 117.907L328.787 117.941H356.79Z" fill="#9C7ACD"/>
<path d="M336.076 100.997C335.124 103.332 331.967 108.954 331.578 111.16C340.919 111.117 346.369 109.906 348.012 107.527C349.007 106.057 349.222 103.937 348.487 102.251C346.411 98.4017 337.806 96.9313 336.076 100.997Z" fill="#511B7C"/>
<path d="M311.555 91.0927C314.063 87.3733 314.625 82.6594 314.538 78.1616C314.452 73.6638 313.933 69.1227 314.582 64.6682C315.23 60.2136 317.392 55.7158 321.371 53.5967C325.35 51.5208 331.232 52.9047 332.746 57.1431L331.881 60.4731C328.81 65.0141 328.464 70.8526 328.551 76.3019C328.68 81.7944 329.286 87.3733 327.773 92.6496C326.562 96.8014 324.052 100.65 320.463 103.072C316.873 105.451 312.16 106.316 308.051 105.019C303.899 103.678 299.877 100.088 299.877 95.2877C303.942 97.1474 309.003 94.812 311.555 91.0927Z" fill="black"/>
<path d="M364.359 61.34C364.1 61.2535 363.839 61.1669 363.623 61.0805C360.034 60.0425 355.839 60.7777 353.028 62.7671C349.741 65.0593 347.881 68.8219 344.638 70.9843C342.735 72.1952 340.27 72.4547 338.237 71.6763C336.161 70.8978 334.215 68.6921 333.869 66.3135C331.75 67.0487 329.718 67.8271 327.685 68.6488L327.987 88.024C328.16 98.2738 336.594 106.448 346.844 106.275C357.05 106.102 365.224 97.7115 365.094 87.4617L364.791 71.0275L364.704 64.6268C364.661 63.5024 364.532 62.3779 364.359 61.34Z" fill="#9C7ACD"/>
<path d="M364.36 61.3398C364.533 62.3778 364.662 63.5022 364.705 64.6267L364.792 71.0273C367.603 72.4978 370.588 71.5896 370.761 68.3027C370.934 64.9726 367.604 62.4643 364.36 61.3398Z" fill="#1DC8EF"/>
<path d="M333.87 66.3557C334.216 68.7344 336.162 70.8968 338.238 71.7185C340.314 72.4537 342.779 72.2375 344.639 70.9833C347.882 68.8209 349.742 65.1016 353.028 62.8094C355.84 60.82 360.034 60.0416 363.624 61.1228C363.84 61.2093 364.1 61.2958 364.36 61.3822C362.673 52.7327 354.975 46.2454 345.893 46.4184C335.643 46.5914 327.469 54.9815 327.642 65.2313L327.686 68.7344C329.718 67.8262 331.794 67.0477 333.87 66.3557C333.87 66.3125 333.87 66.3125 333.87 66.3557Z" fill="#1DC8EF"/>
<path d="M333.869 66.7449C333.913 66.7449 333.913 66.7449 333.869 66.7449C334.172 66.7449 334.344 66.5286 334.344 66.2691C333.998 62.0741 334.561 58.0087 336.032 54.2029C337.329 50.8728 340.399 48.0617 344.119 46.894C344.378 46.8075 344.508 46.548 344.422 46.2885C344.335 46.0723 344.076 45.9426 343.86 46.029C339.881 47.2832 336.594 50.3106 335.167 53.9002C333.697 57.8358 333.09 61.9876 333.436 66.3124C333.48 66.6151 333.696 66.7449 333.869 66.7449Z" fill="black"/>
<path d="M333.87 66.7886C333.913 66.7886 333.957 66.7886 334.043 66.7453C342.044 64.0207 350.607 62.0745 358.911 61.1231C359.17 61.0798 359.299 60.8636 359.299 60.6473C359.256 60.3879 359.084 60.2148 358.824 60.2148C350.521 61.1663 341.828 63.1125 333.74 65.9236C333.524 65.9669 333.394 66.2263 333.48 66.4858C333.567 66.6588 333.697 66.7886 333.87 66.7886Z" fill="black"/>
<path d="M329.329 86.898C326.604 86.9412 324.442 84.822 324.399 82.0974L324.312 77.2104C324.269 74.5291 326.387 72.3667 329.112 72.3234C331.793 72.2802 333.956 74.3993 334 77.0807L334.043 79.0269L329.329 86.898Z" fill="#9C7ACD"/>
<path d="M329.242 87.3312C329.285 87.3312 329.285 87.3312 329.285 87.3312C329.545 87.3312 329.761 87.1149 329.761 86.8987C329.761 86.6392 329.502 86.4229 329.285 86.4229C329.285 86.4229 329.285 86.4229 329.242 86.4229C326.82 86.4229 324.874 84.52 324.831 82.0981L324.744 77.2112C324.744 76.0435 325.133 74.919 325.955 74.054C326.777 73.1891 327.858 72.7566 329.069 72.7133C330.237 72.6701 331.361 73.1458 332.183 73.9243C333.048 74.746 333.524 75.8704 333.567 77.0381L333.61 78.9843C333.61 79.2005 333.784 79.4168 334.043 79.4168C334.302 79.4168 334.475 79.2005 334.475 78.9843L334.432 77.0381C334.388 75.611 333.827 74.3135 332.875 73.3188C331.837 72.3674 330.539 71.8052 329.112 71.8052C327.685 71.8484 326.345 72.4539 325.393 73.4053C324.399 74.4433 323.879 75.7839 323.879 77.1679L323.966 82.0549C324.009 84.9958 326.344 87.3312 329.242 87.3312Z" fill="black"/>
<path d="M352.942 86.5101C353.201 86.5101 353.418 86.3371 353.418 86.0776L353.245 76.6496C353.245 76.3901 353.028 76.1738 352.768 76.1738C352.552 76.1738 352.337 76.3901 352.337 76.6496L352.51 86.0776C352.51 86.3371 352.682 86.5101 352.942 86.5101Z" fill="black"/>
<path d="M345.763 79.2441C346.023 79.2441 346.196 79.0711 346.196 78.8116L346.153 76.779C346.153 76.5195 345.979 76.3032 345.72 76.3032C345.46 76.3032 345.287 76.5195 345.287 76.779V78.8116C345.287 79.0711 345.504 79.2441 345.763 79.2441Z" fill="black"/>
<path d="M359.905 79.0273C360.122 79.0273 360.337 78.8111 360.337 78.5516L360.294 76.5189C360.294 76.2594 360.078 76.0864 359.862 76.0864C359.603 76.0864 359.386 76.2594 359.386 76.5189L359.429 78.5516C359.429 78.8543 359.646 79.0273 359.905 79.0273Z" fill="black"/>
<path d="M333.87 66.355C333.957 67.0469 334.216 67.7389 334.518 68.3444V78.3779H334L333.957 77.9022C333.913 75.9128 332.962 73.9666 331.275 72.9719C329.891 72.107 328.767 72.2367 327.729 72.4962L327.686 68.6471C329.719 67.8254 331.794 67.0469 333.87 66.355Z" fill="black"/>
<path d="M367.344 72.1514C368.079 72.1514 368.771 71.9784 369.377 71.6756C370.458 71.0269 371.15 69.8159 371.236 68.3022C371.452 64.6262 367.734 62.0313 364.49 60.8636C364.274 60.8204 364.014 60.9069 363.927 61.1664C363.841 61.4258 363.971 61.6421 364.23 61.7286C367.171 62.7665 370.501 65.1452 370.328 68.259C370.242 69.5132 369.767 70.3782 368.902 70.8971C367.907 71.4594 366.436 71.3729 365.052 70.6377C364.836 70.5079 364.533 70.5944 364.404 70.8539C364.317 71.0269 364.403 71.3296 364.619 71.4594C365.527 71.8919 366.479 72.1514 367.344 72.1514Z" fill="black"/>
<path d="M364.359 61.7709C364.532 61.7709 364.705 61.6412 364.748 61.5114C364.834 61.2519 364.705 60.9924 364.446 60.9059C364.23 60.8194 363.969 60.7762 363.71 60.6897C362.196 60.214 360.467 60.0843 358.694 60.2572C358.477 60.3005 358.304 60.5167 358.304 60.7762C358.304 60.9924 358.521 61.1654 358.78 61.1654C360.424 60.9924 362.024 61.1222 363.451 61.5546C363.668 61.5979 363.927 61.6844 364.143 61.7709C364.273 61.7709 364.316 61.7709 364.359 61.7709Z" fill="black"/>
<path d="M343.687 88.5854C343.471 90.9641 347.45 99.2677 356.575 96.3269" stroke="black" stroke-width="1.57353" stroke-linecap="round"/>
<path d="M353.028 62.7671C355.84 60.7777 360.034 60.0425 363.624 61.0805C363.84 61.1669 364.1 61.2535 364.36 61.34C364.533 62.3779 364.662 63.5024 364.705 64.6268L364.792 70.9843C359.472 70.2491 354.628 68.0866 350.65 64.8863C351.385 64.1078 352.163 63.3726 353.028 62.7671Z" fill="black"/>
<path d="M438.364 127.321L433.325 135.14C436.396 137.796 438.885 138.631 444.272 139.311C452.63 136.702 455.835 137.415 461.126 139.311L464.775 129.58C464.775 129.58 444.619 107.512 443.403 100.736C442.186 93.9591 436.279 96.913 437.495 100.736C438.711 104.558 438.364 111.335 438.364 111.335V127.321Z" fill="#A478E4"/>
<path d="M435.931 130.622C433.546 130.648 432.309 130.769 431.065 132.012L433.498 135.14L435.931 130.622Z" fill="#3D0077"/>
<path d="M363.299 177.19H381.891L380.849 181.36V187.094L363.299 177.19Z" stroke="black" stroke-width="0.397622"/>
<ellipse cx="465.296" cy="274.496" rx="23.2839" ry="4.69154" fill="#3D0077"/>
<rect x="447.573" y="308.032" width="110.164" height="5.21282" fill="white"/>
<rect x="444.296" y="85.1222" width="23.2338" height="45.4752" rx="4.17503" fill="white" stroke="black" stroke-width="0.397622"/>
<path d="M381.544 304.731C384.645 293.477 389.688 287.997 406.044 280.057L366.948 228.103L384.15 213.507L420.64 161.379C430.197 150.605 434.421 144.431 443.924 139.311C438.072 138.149 434.929 137.178 430.718 132.187L393.36 179.623L384.15 163.985C383.659 158.431 383.302 155.289 379.111 148.52L357.565 117.765L330.111 112.726L313.43 142.439L317.6 269.979L335.845 254.167L381.544 304.731Z" fill="#48D38A"/>
<path d="M384.324 164.158L380.675 180.839C381.177 194.865 378.435 194.953 380.675 206.208" stroke="#3D0077" stroke-width="0.795244" stroke-linecap="round"/>
<path d="M357.391 164.333C359.855 199.016 361.842 212.395 366.426 226.018L354.089 230.362" stroke="#3D0077" stroke-width="0.795244" stroke-linecap="round"/>
<path d="M405.175 279.188C397.699 295.357 381.717 306.295 380.675 303.341C379.632 300.387 389.536 289.44 389.536 289.44C395.046 284.904 398.244 281.861 405.175 279.188Z" fill="#3D0077"/>
<path d="M406.565 308.554L382.934 297.607C388.385 288.609 392.775 284.811 402.743 280.057L425.853 281.968C430.835 283.177 429.849 286.139 425.853 286.139C421.856 286.139 417.512 287.181 417.512 287.181C415.021 287.558 414.977 288.273 415.08 289.614C423.524 293.169 428.232 294.26 436.626 296.043C441.981 297.441 441.651 298.362 440.275 300.04C443.733 303.219 441.709 304.081 438.016 305.6C438.187 308.919 435.198 309.602 429.849 310.813C431.032 312.938 430.41 313.413 428.112 313.593C419.817 313.097 415.07 311.629 406.565 308.554Z" fill="#A478E4"/>
<path d="M418.033 298.647C430.393 301.1 434.971 301.251 440.275 300.038" stroke="#3D0077" stroke-width="0.795244" stroke-linecap="round"/>
<path d="M416.643 303.687C425.474 306.609 430.146 306.996 438.016 305.598" stroke="#3D0077" stroke-width="0.795244" stroke-linecap="round"/>
<path d="M415.427 308.031C420.012 309.922 422.872 310.727 429.501 310.811" stroke="#3D0077" stroke-width="0.795244" stroke-linecap="round"/>
<path d="M463.038 107.164C464.254 105.601 472.421 103.168 472.421 103.168C477.607 103.433 476.517 105.325 474.506 108.728C479.345 111.501 477.57 112.782 475.896 115.157C476.884 118.148 476.156 119.309 473.637 120.892C474.278 125.752 470.38 126.626 463.038 128.016C459.794 127.032 458.769 126.255 463.038 123.15C459.285 122.196 458.349 121.251 461.821 117.764C459.561 114.843 459.152 113.359 463.907 111.682C460.995 110.709 461.821 108.728 463.038 107.164Z" fill="#A478E4"/>
<path d="M474.506 108.207L464.254 111.335" stroke="black" stroke-width="0.397622"/>
<path d="M461.821 117.59L475.548 114.984" stroke="black" stroke-width="0.397622"/>
<path d="M463.211 122.803L472.247 120.892" stroke="black" stroke-width="0.397622"/>
<path d="M449.31 282.836V272.758C462.329 269.304 469.365 269.338 481.456 272.758V283.704L466.86 295.694C462.078 296.993 457.072 298.969 453.133 292.392C451.779 289.744 452.996 283.154 449.31 282.836Z" fill="#A478E4"/>
<path d="M449.31 279.882V272.584V271.542C454.265 270.367 465.122 270.151 465.122 270.151C465.122 270.151 482.179 270.742 481.63 271.542V276.928L449.31 279.882Z" fill="#5B1A99"/>
<path d="M447.573 282.836H449.137H452.612C455.141 293.078 458.588 294.52 467.034 292.219L482.847 282.836L485.453 286.138V282.836C490.344 282.321 492.164 283.331 493.62 287.702C497.625 293.208 500.166 293.565 504.914 292.219L520.553 282.836C528.003 290.874 532.191 293.136 539.666 295.695C552.213 297.275 555.762 300.097 556.869 308.032H447.573V282.836Z" fill="black"/>
<path d="M528.372 291.698L521.595 296.737" stroke="white" stroke-width="1.19287" stroke-linecap="round"/>
<path d="M532.89 294.479L526.113 299.692" stroke="white" stroke-width="1.19287" stroke-linecap="round"/>
<path d="M538.45 297.085L532.543 302.125" stroke="white" stroke-width="1.19287" stroke-linecap="round"/>
<path d="M500.918 297.085L494.141 302.298" stroke="white" stroke-width="1.19287" stroke-linecap="round"/>
<path d="M495.357 294.305L488.581 299.865" stroke="white" stroke-width="1.19287" stroke-linecap="round"/>
<path d="M490.492 291.698L483.716 296.564" stroke="white" stroke-width="1.19287" stroke-linecap="round"/>
<rect x="448.268" y="90.1357" width="16.681" height="3.82273" rx="1.91137" fill="#1DC8EF"/>
<rect x="448.268" y="103.341" width="15.1073" height="3.82273" rx="1.91137" fill="#1DC8EF"/>
<rect x="448.268" y="116.2" width="11.96" height="3.82273" rx="1.91137" fill="#1DC8EF"/>
<rect x="448.268" y="95.6953" width="11.96" height="3.82273" rx="1.91137" fill="#D6BFF8"/>
<rect x="448.268" y="121.76" width="11.96" height="3.82273" rx="1.91137" fill="#D6BFF8"/>
<path d="M103.527 307.684L106.828 288.571L70.3385 278.145C65.2757 288.597 59.7702 291.65 48.6184 295.695C37.1797 297.502 35.1339 299.652 31.5898 303.514V313.071H103.527V307.684Z" fill="white"/>
<rect x="175.392" y="117.51" width="23.2338" height="45.4752" rx="4.17503" transform="rotate(-33.5763 175.392 117.51)" fill="black" stroke="black" stroke-width="0.397622"/>
<rect x="172.612" y="119.248" width="23.2338" height="45.4752" rx="4.17503" transform="rotate(-33.5763 172.612 119.248)" fill="white" stroke="black" stroke-width="0.397622"/>
<rect x="178.245" y="121.029" width="16.681" height="3.82273" rx="1.91137" transform="rotate(-34.0741 178.245 121.029)" fill="#1DC8EF"/>
<rect x="185.643" y="131.968" width="15.1073" height="3.82273" rx="1.91137" transform="rotate(-34.0741 185.643 131.968)" fill="#1DC8EF"/>
<rect x="192.847" y="142.618" width="11.96" height="3.82273" rx="1.91137" transform="rotate(-34.0741 192.847 142.618)" fill="#1DC8EF"/>
<rect x="181.36" y="125.635" width="11.96" height="3.82273" rx="1.91137" transform="rotate(-34.0741 181.36 125.635)" fill="#D6BFF8"/>
<rect x="195.962" y="147.224" width="11.96" height="3.82273" rx="1.91137" transform="rotate(-34.0741 195.962 147.224)" fill="#D6BFF8"/>
<path d="M316.731 271.194C323.682 225.842 276.419 255.903 276.419 255.903C276.419 255.903 191.276 155.469 179.287 143.654C167.297 131.839 148.566 134.804 135.151 154.253L75.3777 266.155C92.1913 269.359 95.4051 272.275 117.254 276.06L165.038 205.513C196.762 255.309 211.606 273.8 239.06 299.517C266.514 325.234 309.781 316.546 316.731 271.194Z" fill="#1DC8EF"/>
<path d="M162.258 287.876L189.712 243.22L165.038 204.992L122.814 275.018C136.792 276.672 144.386 278.438 157.567 282.837L156.003 287.876H162.258Z" fill="#5F36A8"/>
<path d="M274.16 112.03C256.238 127.912 255.916 148.312 247.053 188.659L245.142 237.138L260.259 248.78C279.672 279.411 291.526 289.284 317.252 272.411C324.318 212.381 330.113 179.389 309.781 109.424L306.827 107.165L304.22 101.083L274.16 107.86V112.03Z" fill="#FFC83E"/>
<path d="M303.699 199.779L268.426 182.924C286.646 182.305 294.405 185.964 306.653 195.088L304.742 200.3L303.699 199.779Z" stroke="black" stroke-width="0.397622"/>
<path d="M312.735 199.78C295.647 185.804 284.595 181.752 261.475 183.272C268.448 191.296 273.812 193.754 285.802 194.741C303.2 200.671 308.806 201.61 312.735 199.78Z" fill="#3D0077"/>
<path d="M71.5549 279.187L80.938 267.198C94.3176 269.457 97.2715 271.021 109.435 275.018L106.133 288.397L71.5549 279.187Z" fill="#BB9AEB"/>
<path d="M107.697 282.663L81.8064 267.72C93.4484 269.11 96.0198 268.811 109.608 274.323L107.697 282.663Z" fill="#A478E4"/>
<path d="M155.828 288.571L157.74 282.837C145.364 278.191 140.51 276.886 125.594 275.018L123.161 279.362L155.828 288.571Z" fill="#A478E4"/>
<path d="M306.826 194.567C291.407 184.386 282.645 182.132 266.861 182.751L259.216 202.56L212.127 154.602L205.524 133.751C204.687 131.23 200.137 129.754 201.006 133.751C201.875 137.747 200.028 145.905 197.705 150.432C190.979 144.408 187.196 140.659 180.329 130.102C176.978 140.766 179.204 145.715 182.935 154.602L197.705 172.847C233.294 232.217 250.702 240.787 250.702 240.787C250.702 240.787 270.8 249.979 281.979 239.223C294.837 226.851 298.575 217.031 306.826 194.567Z" fill="#A478E4"/>
<path d="M148.009 313.592L155.828 288.57L120.902 278.666L117.949 284.053L106.307 288.57L103.005 305.773V313.592H148.009Z" fill="white"/>
<path d="M139.148 283.531C139.148 282.836 124.899 275.364 124.899 275.364C138.256 276.405 145.392 278.011 157.74 282.836L155.655 288.744C155.655 288.744 139.148 284.226 139.148 283.531Z" fill="#3A1A74"/>
<path d="M261.475 182.924C264.906 159.349 267.657 147.301 278.678 134.444" stroke="black" stroke-width="0.795244" stroke-linecap="round"/>
<path d="M279.546 111.335C291.831 111.373 297.409 110.293 306.132 107.338" stroke="black" stroke-width="0.795244" stroke-linecap="round"/>
<path d="M258.869 202.386L268.252 212.811" stroke="black" stroke-width="0.795244" stroke-linecap="round"/>
<path d="M161.563 210.552L169.73 197.172" stroke="#3D0077" stroke-width="0.795244" stroke-linecap="round"/>
<path d="M114.454 292.749L108.74 287.875" stroke="#3D0077" stroke-width="1.15376" stroke-linecap="round"/>
<path d="M118.972 290.665L113.258 285.791" stroke="#3D0077" stroke-width="1.15376" stroke-linecap="round"/>
<path d="M73.2498 292.918L66.6953 287.876" stroke="#3D0077" stroke-width="1.15376" stroke-linecap="round"/>
<path d="M67.8716 295.606L61.3171 290.228" stroke="#3D0077" stroke-width="1.15376" stroke-linecap="round"/>
<path d="M63.1663 298.128L56.6118 293.422" stroke="#3D0077" stroke-width="1.15376" stroke-linecap="round"/>
<rect x="31.5898" y="308.032" width="119.547" height="5.21282" fill="black"/>
<path d="M1 312.89H337.489" stroke="black" stroke-width="2" stroke-linecap="round"/>
<path d="M353.221 312.89L532.391 312.89" stroke="black" stroke-width="2" stroke-linecap="round"/>
<path d="M552.93 312.89L601 312.89" stroke="black" stroke-width="2" stroke-linecap="round"/>
</svg>
