<svg viewBox="0 0 566 497" fill="none">
<path d="M17 168C17 168 64.652 168 158.368 168C252.083 168 203.372 13 309.795 13C416.218 13 583 13 583 13" stroke="#48D38A" stroke-opacity="0.3" stroke-width="25"/>
<path d="M583 484C583 484 535.348 484 441.632 484C347.917 484 396.628 329 290.205 329C183.782 329 17 329 17 329" stroke="#40196D" stroke-opacity="0.3" stroke-width="25"/>
<path d="M566 323C566 323 518.348 323 424.632 323C330.917 323 379.628 168 273.205 168C166.782 168 -1.75834e-05 168 -1.75834e-05 168" stroke="#F7685B" stroke-opacity="0.3" stroke-width="25"/>
<path d="M29 269C29 269 123.26 269 238.5 269C353.74 269 258.179 163 389.045 163C519.911 163 725 163 725 163" stroke="#FFC83E" stroke-opacity="0.3" stroke-width="25"/>
</svg>

