<svg
        width="15"
        height="19"
        viewBox="0 0 15 19"
        fill="none"
        xmlns="http://www.w3.org/2000/svg"
      >
        <path
          d="M7.10878 18.0732C7.70658 18.0732 8.30439 18.0407 8.89988 17.9805C8.53146 18.5968 7.85719 19 7.10878 19C6.36036 19 5.6861 18.5968 5.31768 17.9805C5.91317 18.0407 6.51097 18.0732 7.10878 18.0732ZM8.25573 1.04732C8.1978 0.461098 7.7089 0 7.10878 0C6.50866 0 6.01976 0.461098 5.96183 1.04732C6.33256 0.968537 6.71488 0.926829 7.10878 0.926829C7.50268 0.926829 7.885 0.968537 8.25573 1.04732ZM11.678 8.77939C11.678 11.3235 12.5794 13.7148 14.2176 15.5452C11.9962 16.6002 9.56791 17.1475 7.10878 17.1475C4.64965 17.1475 2.22135 16.6002 0 15.5452C1.64049 13.7148 2.53951 11.3235 2.53951 8.77939V6.36963C2.53951 3.87878 4.5878 1.85366 7.10878 1.85366C9.62976 1.85366 11.678 3.87878 11.678 6.36963V8.77939ZM7.5722 3.70732C7.5722 3.45244 7.36366 3.2439 7.10878 3.2439C5.32 3.2439 3.86488 4.69902 3.86488 6.4878C3.86488 6.74268 4.07341 6.95122 4.32829 6.95122C4.58317 6.95122 4.79171 6.74268 4.79171 6.4878C4.79171 6.30707 4.81488 6.13098 4.85427 5.96183C5.05354 5.10683 5.7278 4.43256 6.5828 4.23329C6.75195 4.1939 6.92805 4.17073 7.10878 4.17073C7.36366 4.17073 7.5722 3.96219 7.5722 3.70732Z"
          fill="#213F7D"
        />
      </svg>