<svg width="300" height="444" viewBox="0 0 300 444" fill="none" xmlns="http://www.w3.org/2000/svg">
<path d="M105.251 148.556C104.65 143.024 102.362 136.325 98.0173 128.199C67.7438 139.564 37.1381 155.666 6.40559 173.608C-2.9702 179.068 -1.11894 189.799 5.95022 197.898L74.0068 251.518L77.2129 258.964C67.2996 352.128 64.478 409.939 75.0369 401.041C116.978 417.927 157.336 413.489 196.832 397.372L194.657 278.671L200.27 299.18L198.206 372.682L221.235 381.562C231.417 353.375 235.194 325.191 231.32 297.004C235.209 261.446 226.554 231.773 200.498 210.271C194.824 206.497 187.651 203.847 176.782 203.971C152.01 200.152 123.868 200.223 93.139 203.28L58.8831 185.062L105.251 148.556Z" fill="#1DC8EF"/>
<path d="M191.339 399.537C151.854 412.406 112.996 414.448 75.0371 401.041L79.5944 443.247H190.846L191.339 399.537Z" fill="#3D0077"/>
<path d="M216.171 409.347C219.829 402.714 221.016 392.782 221.236 381.563L201.727 374.038C191.869 378.125 185.857 381.559 182.568 394.201L176.813 397.537C178.339 401.576 182.139 400.897 186.763 399.09C187.846 407.645 186.614 417.431 184.95 425.071C183.61 429.643 188.432 430.151 190.048 426.075L193.769 420.23C198.338 423.339 200.928 422.067 202.365 418.226C205.291 418.64 207.684 417.774 209.236 414.904C212.457 415.02 214.783 413.202 216.171 409.347ZM117.666 161.344C115.755 171.948 119.271 179.606 126.373 185.321L123.623 185.548L118.524 206.916C118.341 225.422 152.104 231.352 155.702 210.959L154.96 189.243C162.876 186.243 168.18 180.219 170.139 170.339L172.774 154.129C175.536 157.402 182.132 157.096 183.374 151.147L184.692 139.804C184.968 135.098 180.403 133.254 176.671 134.362L178.638 123.848C180.508 111.486 175.787 102.98 165.384 98.6731L141.094 97.9863L121.043 141.353L117.666 161.344Z" fill="#A476D4"/>
<path d="M155.239 197.381C146.998 197.788 139.642 196.53 134.651 190.789C141.903 193.417 148.667 192.894 154.963 189.371L155.239 197.381Z" fill="#491A78"/>
<path d="M148.143 173.52C144.336 171.489 140.1 170.078 134.535 170.571C127.271 171.422 130.362 164.289 134.352 161.613C139.693 158.026 147.635 160.146 151.319 164.013C154.925 167.798 154.481 176.83 148.143 173.52Z" fill="white"/>
<path d="M150.632 126.289C150.296 126.124 149.964 126.303 149.893 126.684L145.84 148.44C145.769 148.821 145.986 149.265 146.321 149.429C146.657 149.594 146.99 149.414 147.061 149.034L151.114 127.278C151.185 126.897 150.968 126.453 150.632 126.289ZM144.067 126.483C144.694 126.591 145.12 127.196 145.011 127.823L144.653 129.883C144.541 130.514 143.94 130.935 143.309 130.827C142.682 130.719 142.257 130.114 142.365 129.487L142.723 127.427C142.835 126.796 143.436 126.371 144.067 126.483ZM157.142 128.972C157.772 129.084 158.194 129.685 158.086 130.316L157.728 132.376C157.619 133.003 157.015 133.429 156.388 133.32H156.384C155.757 133.208 155.332 132.608 155.443 131.977L155.802 129.916C155.91 129.289 156.515 128.864 157.142 128.972ZM175.581 106.574L175.759 106.936L162.946 104.353L163.117 103.118L164.215 103.308L175.581 106.574ZM165.383 98.8069L175.901 107.16C174.076 97.1609 169.384 87.2104 160.113 77.327C155.055 68.5894 148.408 66.6859 145.071 71.8702C143.578 77.0246 144.646 80.2532 146.363 82.9965C138.092 78.5213 130.843 76.3453 125.782 79.0887C119.165 82.9106 125.823 88.5839 129.776 90.9465C122.628 92.3872 115.641 94.6453 109.068 99.0682C103.503 104.406 110.356 107.209 111.965 107.477L125.006 99.0234L137.573 99.9789L146.101 102.121C146.101 102.121 148.449 101.252 146.949 104.887C145.449 108.522 154.289 112.273 158.351 106.07C162.413 99.8672 165.383 98.8069 165.383 98.8069Z" fill="#3D0077"/>
<path d="M165.383 98.6722L175.901 107.025C174.076 97.0262 169.384 87.0756 160.113 77.1922C155.055 68.4547 148.408 66.5511 145.071 71.7354C143.578 76.8899 144.646 80.1184 146.363 82.8617C138.092 78.3866 130.843 76.2106 125.782 78.9539C119.165 82.7759 125.823 88.4491 129.776 90.8117C122.628 92.2524 115.641 94.5105 109.068 98.9334C103.503 104.271 110.356 107.074 111.965 107.343L125.006 98.8886L137.573 99.8441L146.101 101.987L146.949 104.752L158.351 105.935L160.113 99.8441L165.383 98.6722Z" stroke="#3D0077" stroke-width="0.270938"/>
<path d="M167.402 107.526L176.752 109.045C177.032 109.09 177.222 109.355 177.177 109.631C177.133 109.911 176.867 110.101 176.591 110.053L167.238 108.534C166.958 108.489 166.768 108.224 166.816 107.948C166.861 107.672 167.122 107.481 167.402 107.526ZM175.121 114.703L178.846 115.256C179.126 115.301 179.335 115.562 179.316 115.846C179.294 116.126 179.051 116.323 178.771 116.282L175.046 115.73C174.77 115.689 174.557 115.424 174.58 115.14C174.598 114.86 174.845 114.662 175.121 114.703ZM169.418 110.87L178.771 112.393C179.047 112.438 179.238 112.699 179.193 112.979C179.148 113.255 178.883 113.446 178.607 113.401L169.253 111.878C168.973 111.833 168.783 111.572 168.832 111.292C168.876 111.016 169.138 110.826 169.418 110.87Z" fill="#491A78"/>
<path d="M144.673 101.408C136.07 100.262 128.72 101.423 123.271 106.719C123.226 105.248 124.055 103.912 126.007 102.751C128.582 101.516 131.882 101.008 135.61 100.926C137.708 100.579 139.205 98.2725 136.894 97.1191L121.718 97.7089C118.158 100.254 114.776 103.737 111.525 107.898C103.986 112.918 99.6861 119.577 97.5811 127.314C101.605 135.451 104.807 142.998 105.251 148.555C114.045 150.003 123.238 143.707 133.035 125.706C140.059 125.553 146.27 124.489 150.682 121.413C153.041 120.002 152.72 116.576 149.286 117.875C144.217 119.286 138.507 119.588 132.285 119.002C137.432 114.538 143.609 112.874 150.682 113.639C153.362 113.243 153.365 110.078 149.823 109.507C146.614 108.156 143.191 108.257 137.678 108.981L127.832 113.53C129.198 110.022 133.248 107.085 145.154 105.808C148.08 105.062 148.121 102.3 144.673 101.408Z" fill="#A476D4"/>
<path d="M105.251 148.555C114.045 150.003 123.238 143.707 133.035 125.706C140.059 125.553 146.27 124.489 150.682 121.413C153.041 120.002 152.72 116.576 149.286 117.875C144.217 119.286 138.507 119.588 132.285 119.002C137.432 114.538 143.609 112.874 150.682 113.639C153.362 113.243 153.365 110.078 149.823 109.507C146.614 108.156 143.191 108.257 137.678 108.981L127.832 113.53C129.198 110.022 133.248 107.085 145.154 105.808C148.08 105.062 148.121 102.3 144.673 101.408C136.07 100.262 128.72 101.423 123.271 106.719C123.226 105.248 124.055 103.912 126.007 102.751C128.582 101.516 131.882 101.008 135.61 100.926C137.708 100.579 139.205 98.2725 136.894 97.1191L121.718 97.7089C118.158 100.254 114.776 103.737 111.525 107.898C103.986 112.918 99.6861 119.577 97.5811 127.314M194.052 420.419L196.198 406.527M202.364 418.225L203.365 410.95M209.236 414.903L209.579 411.678" stroke="#491A78" stroke-width="0.328494"/>
<path d="M131.523 222.564C128.126 302.505 105.026 344.823 91.7764 405.952C117.101 411.901 142.806 411.364 168.806 405.687C172.743 338.28 152.495 290.58 152.398 218.242C147.613 223.886 138.909 224.949 131.523 222.564Z" fill="#FFC83E"/>
<path d="M131.523 222.565C124.368 220.251 118.448 214.694 118.523 206.915L119.848 201.369C118.489 201.425 117.131 201.489 115.761 201.559C114.589 204.168 113.921 207.154 113.921 210.327C113.921 220.561 120.859 228.858 129.418 228.858C129.668 228.858 129.918 228.851 130.164 228.836L131.523 222.565ZM155.701 210.958C155.179 213.932 154.011 216.347 152.398 218.243L153.063 225.798C157.907 222.666 161.199 216.534 161.199 209.487C161.199 206.822 160.729 204.288 159.882 202C158.392 201.877 156.892 201.769 155.384 201.671L155.701 210.958Z" fill="#3D0077"/>
<path d="M95.2139 390.088L90.9478 413.39C89.5407 416.67 87.3535 417.35 83.7816 413.39L74.7529 401.267L76.1675 389.092L82.326 385.732L95.2139 390.088ZM168.089 397.489L169.328 412.494L186.975 401.14L178.846 401.856L168.089 397.489Z" fill="#1DC8EF"/>
<path d="M247.374 2.42593C227.109 9.89109 216.746 32.3727 224.219 52.6297C226.812 59.6719 231.23 65.5156 236.729 69.8396C237.606 73.0121 238.742 80.7984 231.59 87.7074C239.549 86.4932 244.734 82.4904 247.155 75.6911C255.63 78.8792 265.25 79.1612 274.423 75.785C294.68 68.3121 305.043 45.8382 297.578 25.5812C290.105 5.32426 267.631 -5.04707 247.374 2.42593Z" fill="#48D38A"/>
<path d="M255.975 47.6856C255.975 46.2834 256.038 45.0222 256.163 43.8942C256.289 42.7741 256.5 41.7401 256.806 40.8001C257.111 39.8523 257.518 38.9749 258.035 38.1524C258.545 37.3378 259.179 36.5309 259.939 35.7319C260.503 35.1053 261.028 34.4943 261.514 33.8911C261.991 33.2958 262.406 32.6926 262.751 32.0816C263.104 31.4784 263.37 30.8439 263.574 30.1938C263.77 29.5436 263.871 28.8464 263.871 28.0866C263.871 24.5851 262.735 22.8304 260.472 22.8304C260.072 22.8304 259.665 22.9323 259.25 23.1359C258.827 23.3318 258.443 23.6529 258.098 24.0916C257.754 24.5303 257.471 25.0864 257.244 25.7601C257.025 26.4338 256.908 27.2406 256.884 28.1806H247.985C248.001 25.9794 248.338 24.0681 248.988 22.4544C249.638 20.8408 250.523 19.5091 251.651 18.4594C252.771 17.4098 254.08 16.6343 255.584 16.1173C257.08 15.6003 258.709 15.3496 260.472 15.3496C262.399 15.3496 264.13 15.6159 265.649 16.1643C267.169 16.7126 268.462 17.5038 269.519 18.5534C270.577 19.6031 271.391 20.8956 271.955 22.4231C272.519 23.9584 272.809 25.7209 272.809 27.7106C272.809 29.0736 272.613 30.3113 272.237 31.4236C271.861 32.5359 271.368 33.5778 270.757 34.5569C270.154 35.5283 269.449 36.4761 268.65 37.3848C267.859 38.3013 267.028 39.2178 266.198 40.1656C265.728 40.7061 265.352 41.2623 265.054 41.8028C264.749 42.3511 264.506 42.9229 264.326 43.5183C264.145 44.1214 264.02 44.7559 263.934 45.4374C263.848 46.1189 263.801 46.8709 263.777 47.6856H255.975ZM255.153 57.3127C255.153 56.6234 255.27 55.9811 255.505 55.3936C255.732 54.8061 256.054 54.3048 256.477 53.8739C256.9 53.4431 257.409 53.0984 258.004 52.8478C258.599 52.5971 259.265 52.4717 260.002 52.4717C260.754 52.4717 261.435 52.5971 262.03 52.8478C262.626 53.0984 263.135 53.4431 263.558 53.8739C263.973 54.3048 264.302 54.8061 264.529 55.3936C264.764 55.9811 264.874 56.6234 264.874 57.3127C264.874 58.0099 264.764 58.6444 264.529 59.2319C264.302 59.8194 263.973 60.3364 263.558 60.7751C263.135 61.2137 262.626 61.5584 262.03 61.8012C261.435 62.0441 260.754 62.1616 260.002 62.1616C259.265 62.1616 258.599 62.0441 258.004 61.8012C257.409 61.5584 256.9 61.2137 256.477 60.7751C256.054 60.3364 255.732 59.8194 255.505 59.2319C255.27 58.6444 255.153 58.0099 255.153 57.3127Z" fill="white"/>
</svg>
