<svg width="14" height="13" viewBox="0 0 14 13" fill="none" xmlns="http://www.w3.org/2000/svg">
<path opacity="0.4" d="M13.5554 4.22221H12.7357C12.492 3.67106 12.1387 3.17525 11.6973 2.76499L12.2221 0.666656H11.3332C10.5165 0.666656 9.79456 1.04166 9.30539 1.61999C9.09512 1.58943 8.88539 1.55555 8.66651 1.55555H5.11095C2.47706 1.55555 0.666505 3.74666 0.666505 5.99999C0.665965 6.69006 0.826373 7.37075 1.13498 7.98797C1.44359 8.60519 1.8919 9.14193 2.44428 9.55555V11.7778C2.44428 11.8956 2.49111 12.0087 2.57446 12.092C2.65781 12.1754 2.77085 12.2222 2.88873 12.2222H4.66651C4.78438 12.2222 4.89743 12.1754 4.98077 12.092C5.06412 12.0087 5.11095 11.8956 5.11095 11.7778V10.4444H8.66651V11.7778C8.66651 11.8956 8.71333 12.0087 8.79668 12.092C8.88003 12.1754 8.99308 12.2222 9.11095 12.2222H10.8887C11.0066 12.2222 11.1196 12.1754 11.203 12.092C11.2863 12.0087 11.3332 11.8956 11.3332 11.7778V9.53555C11.6615 9.28744 11.954 8.99503 12.2021 8.66666H13.5554C13.6733 8.66666 13.7863 8.61983 13.8697 8.53648C13.953 8.45313 13.9998 8.34009 13.9998 8.22221V4.66666C13.9998 4.54878 13.953 4.43574 13.8697 4.35239C13.7863 4.26904 13.6733 4.22221 13.5554 4.22221ZM9.99984 5.99999C9.91194 5.99999 9.82601 5.97392 9.75292 5.92509C9.67983 5.87625 9.62286 5.80684 9.58923 5.72563C9.55559 5.64441 9.54679 5.55505 9.56393 5.46884C9.58108 5.38262 9.62341 5.30343 9.68557 5.24128C9.74773 5.17912 9.82692 5.13679 9.91313 5.11964C9.99935 5.10249 10.0887 5.11129 10.1699 5.14493C10.2511 5.17857 10.3205 5.23554 10.3694 5.30863C10.4182 5.38171 10.4443 5.46764 10.4443 5.55555C10.4443 5.67342 10.3975 5.78647 10.3141 5.86982C10.2308 5.95317 10.1177 5.99999 9.99984 5.99999Z" fill="#213F7D"/>
</svg>
