<svg width="12" height="16" viewBox="0 0 12 16" fill="none" xmlns="http://www.w3.org/2000/svg">
<path d="M0.88916 3.53592C0.88916 3.69987 0.95429 3.85711 1.07022 3.97304C1.18615 4.08897 1.34339 4.1541 1.50734 4.1541H9.23464L7.86845 5.58056C7.75492 5.69902 7.69309 5.85772 7.69656 6.02177C7.70004 6.18581 7.76854 6.34175 7.887 6.45529C8.00545 6.56883 8.16416 6.63066 8.3282 6.62718C8.49225 6.6237 8.64819 6.5552 8.76173 6.43675L11.1278 3.96401C11.2383 3.84889 11.3 3.69549 11.3 3.53592C11.3 3.37634 11.2383 3.22295 11.1278 3.10783L8.76173 0.635092C8.70551 0.576439 8.63829 0.529433 8.56391 0.496758C8.48952 0.464083 8.40943 0.446378 8.3282 0.444656C8.24698 0.442934 8.16621 0.457229 8.09051 0.486722C8.0148 0.516214 7.94565 0.560328 7.887 0.616547C7.82835 0.672764 7.78134 0.739985 7.74866 0.814369C7.71599 0.888752 7.69829 0.968844 7.69656 1.05007C7.69484 1.1313 7.70913 1.21207 7.73863 1.28777C7.76812 1.36347 7.81224 1.43262 7.86845 1.49128L9.23464 2.91773L1.50734 2.91773C1.34339 2.91773 1.18615 2.98286 1.07022 3.0988C0.95429 3.21473 0.88916 3.37197 0.88916 3.53592Z" fill="#40196D"/>
<path d="M11.3003 12.6015C11.3003 12.4376 11.2352 12.2803 11.1192 12.1644C11.0033 12.0485 10.8461 11.9833 10.6821 11.9833H2.95481L4.321 10.5569C4.43454 10.4384 4.49637 10.2797 4.49289 10.1157C4.48941 9.95164 4.42091 9.7957 4.30245 9.68216C4.184 9.56862 4.02529 9.50679 3.86125 9.51027C3.69721 9.51375 3.54126 9.58225 3.42772 9.70071L1.06163 12.1734C0.95112 12.2886 0.889412 12.442 0.889412 12.6015C0.889412 12.7611 0.95112 12.9145 1.06163 13.0296L3.42772 15.5024C3.48394 15.561 3.55116 15.608 3.62555 15.6407C3.69993 15.6734 3.78002 15.6911 3.86125 15.6928C3.94247 15.6945 4.02324 15.6802 4.09895 15.6507C4.17465 15.6212 4.2438 15.5771 4.30245 15.5209C4.36111 15.4647 4.40811 15.3975 4.44079 15.3231C4.47346 15.2487 4.49117 15.1686 4.49289 15.0874C4.49461 15.0062 4.48032 14.9254 4.45083 14.8497C4.42133 14.774 4.37722 14.7048 4.321 14.6462L2.95481 13.2197H10.6821C10.8461 13.2197 11.0033 13.1546 11.1192 13.0387C11.2352 12.9227 11.3003 12.7655 11.3003 12.6015Z" fill="#40196D"/>
</svg>
