<svg width="40" height="66" viewBox="0 0 40 66" fill="none" xmlns="http://www.w3.org/2000/svg">
<path d="M37.8295 65.5054H1.22031C0.531619 65.5054 0 64.9518 0 64.2899V1.21551C0.0120822 0.529531 0.567866 0 1.23239 0H37.8416C38.5303 0 39.0619 0.5536 39.0619 1.21551V64.326C39.074 64.9758 38.5182 65.5054 37.8295 65.5054Z" fill="#48D38A"/>
<path d="M19.0783 62.7735C20.8732 62.7735 22.3284 61.3241 22.3284 59.5362C22.3284 57.7482 20.8732 56.2988 19.0783 56.2988C17.2833 56.2988 15.8281 57.7482 15.8281 59.5362C15.8281 61.3241 17.2833 62.7735 19.0783 62.7735Z" fill="#41186D"/>
<path d="M35.377 4.47723C35.377 3.81532 34.8453 3.26172 34.1567 3.26172H5.11093C4.44641 3.26172 3.89062 3.79125 3.89062 4.47723V52.3035L35.377 4.89845V4.47723Z" fill="white"/>
<path d="M3.89062 52.3035V52.4118C3.89062 53.0737 4.42224 53.6273 5.11093 53.6273H34.1687C34.8574 53.6273 35.4132 53.0737 35.389 52.3877V4.89844L3.89062 52.3035Z" fill="white"/>
</svg>
