<svg width="70" height="19" viewBox="0 0 70 19" fill="none" xmlns="http://www.w3.org/2000/svg">
<path d="M35.808 4.44V11.064C35.808 12.4187 35.4507 13.4427 34.736 14.136C34.0213 14.8187 32.9973 15.16 31.664 15.16C30.3413 15.16 29.3173 14.8187 28.592 14.136C27.8773 13.4427 27.52 12.4187 27.52 11.064V4.44H28.8V10.744C28.8 11.8427 29.0293 12.6533 29.488 13.176C29.9573 13.6987 30.6827 13.96 31.664 13.96C32.6453 13.96 33.3653 13.6987 33.824 13.176C34.2933 12.6533 34.528 11.8427 34.528 10.744V4.44H35.808ZM41.5555 15.16C40.7768 15.16 40.0568 14.9947 39.3955 14.664C38.7448 14.3333 38.2435 13.864 37.8915 13.256L38.9795 12.472C39.2142 12.9627 39.5555 13.3467 40.0035 13.624C40.4622 13.9013 41.0115 14.04 41.6515 14.04C42.2168 14.04 42.6595 13.9333 42.9795 13.72C43.2995 13.496 43.4595 13.208 43.4595 12.856C43.4595 12.632 43.3848 12.4293 43.2355 12.248C43.0968 12.056 42.8248 11.9173 42.4195 11.832L40.4995 11.432C39.7208 11.272 39.1608 11.0053 38.8195 10.632C38.4888 10.2587 38.3235 9.79467 38.3235 9.24C38.3235 8.80267 38.4462 8.40267 38.6915 8.04C38.9475 7.67733 39.3048 7.38933 39.7635 7.176C40.2328 6.952 40.7822 6.84 41.4115 6.84C42.2008 6.84 42.8675 6.99467 43.4115 7.304C43.9555 7.61333 44.3608 8.05067 44.6275 8.616L43.5555 9.32C43.3742 8.85067 43.0808 8.50933 42.6755 8.296C42.2702 8.072 41.8488 7.96 41.4115 7.96C40.8355 7.96 40.3875 8.07733 40.0675 8.312C39.7475 8.54667 39.5875 8.84 39.5875 9.192C39.5875 9.42667 39.6675 9.64533 39.8275 9.848C39.9875 10.04 40.2862 10.1787 40.7235 10.264L42.7235 10.68C43.4702 10.8293 43.9928 11.0747 44.2915 11.416C44.5902 11.7573 44.7395 12.1733 44.7395 12.664C44.7395 13.4213 44.4462 14.0293 43.8595 14.488C43.2728 14.936 42.5048 15.16 41.5555 15.16ZM50.457 15.16C49.6997 15.16 49.0223 14.9947 48.425 14.664C47.8383 14.3333 47.3797 13.8587 47.049 13.24C46.7183 12.6107 46.553 11.864 46.553 11C46.553 10.136 46.7183 9.39467 47.049 8.776C47.3797 8.14667 47.833 7.66667 48.409 7.336C48.985 7.00533 49.641 6.84 50.377 6.84C51.1237 6.84 51.7583 7 52.281 7.32C52.8143 7.64 53.2197 8.07733 53.497 8.632C53.7743 9.176 53.913 9.78933 53.913 10.472C53.913 10.6533 53.9077 10.8187 53.897 10.968C53.8863 11.1173 53.8703 11.2507 53.849 11.368H47.817C47.881 12.2107 48.1423 12.8667 48.601 13.336C49.0597 13.8053 49.6677 14.04 50.425 14.04C51.0117 14.04 51.4863 13.928 51.849 13.704C52.2223 13.48 52.521 13.176 52.745 12.792L53.753 13.384C53.4543 13.928 53.0223 14.36 52.457 14.68C51.9023 15 51.2357 15.16 50.457 15.16ZM50.345 7.96C49.673 7.96 49.1183 8.16267 48.681 8.568C48.2543 8.96267 47.9823 9.51733 47.865 10.232H52.633C52.601 9.50667 52.377 8.94667 51.961 8.552C51.545 8.15733 51.0063 7.96 50.345 7.96ZM56.3474 15V7H57.3874L57.5634 8.312C58.0114 7.33067 58.8647 6.84 60.1234 6.84C60.262 6.84 60.4114 6.85067 60.5714 6.872C60.742 6.89333 60.886 6.936 61.0034 7L60.7794 8.168C60.662 8.12533 60.534 8.09333 60.3954 8.072C60.2567 8.05067 60.0594 8.04 59.8034 8.04C59.4727 8.04 59.1367 8.136 58.7954 8.328C58.4647 8.52 58.1874 8.81333 57.9634 9.208C57.7394 9.592 57.6274 10.0827 57.6274 10.68V15H56.3474ZM65.4149 15.16C64.6362 15.16 63.9162 14.9947 63.2549 14.664C62.6042 14.3333 62.1029 13.864 61.7509 13.256L62.8389 12.472C63.0735 12.9627 63.4149 13.3467 63.8629 13.624C64.3215 13.9013 64.8709 14.04 65.5109 14.04C66.0762 14.04 66.5189 13.9333 66.8389 13.72C67.1589 13.496 67.3189 13.208 67.3189 12.856C67.3189 12.632 67.2442 12.4293 67.0949 12.248C66.9562 12.056 66.6842 11.9173 66.2789 11.832L64.3589 11.432C63.5802 11.272 63.0202 11.0053 62.6789 10.632C62.3482 10.2587 62.1829 9.79467 62.1829 9.24C62.1829 8.80267 62.3055 8.40267 62.5509 8.04C62.8069 7.67733 63.1642 7.38933 63.6229 7.176C64.0922 6.952 64.6415 6.84 65.2709 6.84C66.0602 6.84 66.7269 6.99467 67.2709 7.304C67.8149 7.61333 68.2202 8.05067 68.4869 8.616L67.4149 9.32C67.2335 8.85067 66.9402 8.50933 66.5349 8.296C66.1295 8.072 65.7082 7.96 65.2709 7.96C64.6949 7.96 64.2469 8.07733 63.9269 8.312C63.6069 8.54667 63.4469 8.84 63.4469 9.192C63.4469 9.42667 63.5269 9.64533 63.6869 9.848C63.8469 10.04 64.1455 10.1787 64.5829 10.264L66.5829 10.68C67.3295 10.8293 67.8522 11.0747 68.1509 11.416C68.4495 11.7573 68.5989 12.1733 68.5989 12.664C68.5989 13.4213 68.3055 14.0293 67.7189 14.488C67.1322 14.936 66.3642 15.16 65.4149 15.16Z" fill="#213F7D"/>
<path opacity="0.4" d="M12 9.40001C12.4747 9.40001 12.9387 9.25925 13.3334 8.99553C13.728 8.73182 14.0356 8.35699 14.2173 7.91845C14.399 7.4799 14.4465 6.99734 14.3539 6.53179C14.2613 6.06624 14.0327 5.6386 13.697 5.30295C13.3614 4.9673 12.9338 4.73873 12.4682 4.64612C12.0026 4.55352 11.5201 4.60105 11.0815 4.7827C10.643 4.96435 10.2682 5.27196 10.0044 5.66664C9.74073 6.06132 9.59997 6.52533 9.59997 7.00001C9.59997 7.63653 9.85283 8.24698 10.3029 8.69706C10.753 9.14715 11.3635 9.40001 12 9.40001ZM13.2 10.2H13.105C12.7575 10.32 12.39 10.4 12 10.4C11.61 10.4 11.2425 10.32 10.895 10.2H10.8C10.29 10.2 9.81997 10.3475 9.40747 10.585C10.0175 11.2425 10.4 12.115 10.4 13.08V14.04C10.4 14.095 10.3875 14.1475 10.385 14.2H14.8C15.1183 14.2 15.4235 14.0736 15.6485 13.8485C15.8736 13.6235 16 13.3183 16 13C16.0002 12.6322 15.9279 12.2681 15.7873 11.9283C15.6466 11.5885 15.4404 11.2797 15.1803 11.0197C14.9203 10.7596 14.6115 10.5534 14.2717 10.4127C13.9319 10.2721 13.5677 10.1998 13.2 10.2Z" fill="#213F7D"/>
<path d="M4.8 9.40002C5.35379 9.40002 5.89514 9.2358 6.3556 8.92813C6.81605 8.62047 7.17494 8.18317 7.38686 7.67153C7.59879 7.1599 7.65424 6.59691 7.5462 6.05377C7.43816 5.51062 7.17149 5.01171 6.7799 4.62012C6.38831 4.22853 5.8894 3.96186 5.34625 3.85382C4.80311 3.74578 4.24012 3.80123 3.72849 4.01316C3.21685 4.22508 2.77955 4.58397 2.47189 5.04442C2.16422 5.50488 2 6.04623 2 6.60002C1.9998 6.96778 2.07209 7.33197 2.21274 7.67177C2.35338 8.01157 2.55962 8.32031 2.81966 8.58036C3.0797 8.8404 3.38845 9.04664 3.72825 9.18728C4.06805 9.32793 4.43224 9.40022 4.8 9.40002ZM6.72 10.2H6.5125C5.97911 10.4607 5.39369 10.5975 4.8 10.6C4.185 10.6 3.61 10.45 3.0875 10.2H2.88C2.11624 10.2002 1.38381 10.5037 0.843752 11.0438C0.30369 11.5838 0.000198819 12.3163 0 13.08L0 13.8C0 14.1183 0.126428 14.4235 0.351472 14.6485C0.576515 14.8736 0.88174 15 1.2 15H8.4C8.71826 15 9.02349 14.8736 9.24853 14.6485C9.47357 14.4235 9.6 14.1183 9.6 13.8V13.08C9.5998 12.3163 9.29631 11.5838 8.75625 11.0438C8.21619 10.5037 7.48376 10.2002 6.72 10.2Z" fill="#213F7D"/>
</svg>
