<svg width="650" height="146" viewBox="0 0 650 146" fill="none" xmlns="http://www.w3.org/2000/svg">
<g clip-path="url(#clip0_32958:1053)">
<path d="M385.261 44.9472V143.533H356.658V129.134C353.545 134.323 349.459 138.279 344.4 141.003C339.341 143.727 333.634 145.089 327.277 145.089C314.954 145.089 305.744 141.652 299.648 134.777C293.551 127.902 290.502 117.524 290.502 103.644V44.9472H319.884V104.228C319.884 116.162 325.007 122.129 335.255 122.129C341.352 122.129 346.281 120.054 350.043 115.903C353.805 111.752 355.686 106.304 355.686 99.5584V44.9472H385.261ZM497.337 0V143.533H468.345V128.939C465.362 133.998 461.146 137.955 455.698 140.809C450.25 143.662 444.088 145.089 437.213 145.089C428.782 145.089 421.258 142.949 414.642 138.603C408.027 134.258 402.903 128.161 399.206 120.313C395.509 112.465 393.693 103.515 393.693 93.3968C393.693 83.2788 395.509 74.3931 399.206 66.6749C402.903 58.9567 408.027 52.9897 414.577 48.7739C421.128 44.558 428.652 42.4826 437.213 42.4826C443.829 42.4826 449.861 43.9095 455.309 46.6335C460.757 49.4225 464.973 53.2491 467.956 58.1784V0H497.337ZM462.508 115.254C466.4 110.26 468.345 103.126 468.345 93.7859C468.345 84.576 466.4 77.5063 462.443 72.5122C458.487 67.5181 452.974 65.0534 445.839 65.0534C438.575 65.0534 432.932 67.5181 428.911 72.4473C424.89 77.3766 422.879 84.3814 422.879 93.4616C422.879 102.801 424.89 110.001 428.911 115.124C432.932 120.248 438.575 122.778 445.839 122.778C453.104 122.713 458.617 120.248 462.508 115.254ZM609.478 44.9472V143.533H580.486V128.939C577.503 133.998 573.287 137.955 567.839 140.809C562.391 143.662 556.229 145.089 549.354 145.089C540.793 145.089 533.269 143.014 526.718 138.863C520.168 134.712 515.044 128.81 511.347 121.091C507.65 113.373 505.834 104.488 505.834 94.3697C505.834 84.2517 507.65 75.2363 511.347 67.3235C515.044 59.4107 520.168 53.314 526.783 48.9684C533.399 44.6229 540.923 42.4826 549.354 42.4826C556.229 42.4826 562.391 43.9743 567.839 46.9578C573.287 49.9413 577.503 53.9626 580.486 59.0216V44.9472H609.478ZM574.649 115.319C578.541 110.39 580.486 103.255 580.486 93.9156C580.486 84.576 578.541 77.4415 574.649 72.4473C570.758 67.4532 565.18 64.9886 557.916 64.9886C550.651 64.9886 545.009 67.5829 540.987 72.7716C536.966 77.9604 534.956 85.1597 534.956 94.3697C534.956 103.58 536.901 110.584 540.858 115.449C544.814 120.313 550.457 122.713 557.851 122.713C565.18 122.713 570.758 120.248 574.649 115.319ZM284.6 144.96H248.15L208.975 100.272V144.96H179.27V0H208.975V88.0135L246.398 45.2715H282.071L239.718 93.1373L284.6 144.96Z" fill="#40196D"/>
<path d="M97.7423 144.96L40.7314 79.3224L71.8636 144.96H50.2656L18.4848 78.0252L31.716 144.96H18.4199L5.18871 77.8955V144.96H0V0H5.18871V72.3176L18.6145 0H31.8457L18.3551 72.6419L50.7845 0H72.1231L39.8882 72.3825L98.4558 0H131.988L71.3447 74.8471L132.247 144.96H97.7423Z" fill="#40196D"/>
<path d="M634.062 143.404C642.945 143.404 650.147 136.203 650.147 127.319C650.147 118.436 642.945 111.234 634.062 111.234C625.178 111.234 617.977 118.436 617.977 127.319C617.977 136.203 625.178 143.404 634.062 143.404Z" fill="#40196D"/>
</g>
<defs>
<clipPath id="clip0_32958:1053">
<rect width="650" height="145.089" fill="white"/>
</clipPath>
</defs>
</svg>
